#!OML:ASF H:\Pregnant\Project 1\Capture day 1\Session 1\femalepreg.ASF
:FULLY-SPECIFIED
:DEGREES
137
root 2.80615 15.7256 31.835 183.707 -86.4053 -166.935
lowerback -23.8639 -2.44735 -1.98456
upperback -7.19946 -3.62249 3.89326
thorax 5.71104 -2.02007 4.32723
lowerneck -13.8031 -8.49084 -4.16089
upperneck 20.8967 -13.9859 10.1992
head 9.96848 -5.98352 2.32885
rclavicle -3.65764e-014 2.38542e-014
rhumerus -37.4757 -10.2642 -72.7451
rradius 25.7141
rwrist -26.9086
rhand -15.1986 -32.4346
rfingers 7.12502
rthumb 10.9732 -62.1278
lclavicle -3.65764e-014 2.38542e-014
lhumerus -42.7349 -6.96239 91.574
lradius 33.4832
lwrist 57.8182
lhand -27.4165 14.4045
lfingers 7.12502
lthumb -0.822327 44.3826
rfemur -26.1064 18.3645 21.8986
rtibia 26.4301
rfoot -13.9022 -12.8476
rtoes 6.60542
lfemur 0 0 0
ltibia 0
lfoot 0 0
ltoes 0
138
root 2.8089 15.726 31.834 183.368 -86.4457 -166.586
lowerback -23.8147 -2.47824 -2.08229
upperback -7.20667 -3.64366 3.94281
thorax 5.68861 -2.0302 4.43343
lowerneck -13.9548 -8.3914 -3.99497
upperneck 21.0074 -13.8589 10.0687
head 10.0031 -5.91475 2.27052
rclavicle 1.66979e-014 3.02153e-014
rhumerus -37.5213 -9.4846 -73.0301
rradius 25.9334
rwrist -26.8827
rhand -13.9998 -31.4038
rfingers 7.12502
rthumb 12.1293 -61.0322
lclavicle 1.66979e-014 3.02153e-014
lhumerus -43.0153 -8.12199 92.3992
lradius 33.6651
lwrist 57.0838
lhand -27.5684 14.1458
lfingers 7.12502
lthumb -0.969093 44.1234
rfemur -26.1133 18.329 21.9204
rtibia 26.4142
rfoot -13.891 -12.8473
rtoes 6.60914
lfemur 0 0 0
ltibia 0
lfoot 0 0
ltoes 0
139
root 2.81137 15.7263 31.833 182.973 -86.4918 -166.185
lowerback -23.7701 -2.49775 -2.16784
upperback -7.20681 -3.65147 3.98092
thorax 5.67364 -2.03366 4.52374
lowerneck -14.1108 -8.2861 -3.83088
upperneck 21.1072 -13.7251 9.95259
head 10.036 -5.8416 2.21829
rclavicle 3.48867e-014 -2.8625e-014
rhumerus -37.5656 -8.67038 -73.3408
rradius 26.1545
rwrist -26.7182
rhand -12.8449 -30.3915
rfingers 7.12502
rthumb 13.2427 -59.9508
lclavicle 3.48867e-014 -2.8625e-014
lhumerus -43.293 -9.32386 93.2405
lradius 33.8258
lwrist 56.2907
lhand -27.7339 13.8619
lfingers 7.12502
lthumb -1.12895 43.8387
rfemur -26.1125 18.2906 21.9467
rtibia 26.3964
rfoot -13.8814 -12.853
rtoes 6.60539
lfemur 0 0 0
ltibia 0
lfoot 0 0
ltoes 0
140
root 2.81366 15.7264 31.8322 182.561 -86.5429 -165.769
lowerback -23.7294 -2.51098 -2.24595
upperback -7.20065 -3.65187 4.01201
thorax 5.66595 -2.03339 4.60402
lowerneck -14.2781 -8.16985 -3.66792
upperneck 21.2096 -13.5763 9.83944
head 10.0716 -5.76061 2.16907
rclavicle 3.27995e-015 9.54166e-015
rhumerus -37.6061 -7.83193 -73.6693
rradius 26.3745
rwrist -26.3393
rhand -11.7881 -29.408
rfingers 7.12502
rthumb 14.2612 -58.8984
lclavicle 3.27995e-015 9.54166e-015
lhumerus -43.5734 -10.5604 94.1
lradius 33.9703
lwrist 55.4447
lhand -27.9058 13.5576
lfingers 7.12502
lthumb -1.29495 43.5334
rfemur -26.1079 18.2531 21.9728
rtibia 26.3795
rfoot -13.8752 -12.8645
rtoes 6.61348
lfemur 0 0 0
ltibia 0
lfoot 0 0
ltoes 0
141
root 2.81587 15.7266 31.8315 182.155 -86.5968 -165.36
lowerback -23.694 -2.51336 -2.31181
upperback -7.18904 -3.6396 4.0304
thorax 5.66414 -2.02684 4.66671
lowerneck -14.4504 -8.04436 -3.50244
upperneck 21.3076 -13.4157 9.73225
head 10.1066 -5.67329 2.12311
rclavicle -1.2921e-014 3.26007e-014
rhumerus -37.6501 -7.00776 -74.005
rradius 26.5886
rwrist -25.6663
rhand -10.8026 -28.4923
rfingers 7.12502
rthumb 15.2107 -57.9131
lclavicle -1.2921e-014 3.26007e-014
lhumerus -43.8568 -11.8296 94.968
lradius 34.096
lwrist 54.5353
lhand -28.063 13.2453
lfingers 7.12502
lthumb -1.44673 43.2201
rfemur -26.1034 18.2193 21.9955
rtibia 26.3663
rfoot -13.8738 -12.8812
rtoes 6.64632
lfemur 0 0 0
ltibia 0
lfoot 0 0
ltoes 0
142
root 2.81805 15.7266 31.8311 181.787 -86.6527 -164.991
lowerback -23.6628 -2.51362 -2.37336
upperback -7.1745 -3.62503 4.04432
thorax 5.66693 -2.01916 4.72253
lowerneck -14.6289 -7.90489 -3.33453
upperneck 21.4098 -13.2354 9.621
head 10.1428 -5.57661 2.07814
rclavicle -3.8763e-015 -2.38542e-014
rhumerus -37.6928 -6.19151 -74.343
rradius 26.7868
rwrist -24.669
rhand -9.93208 -27.6309
rfingers 7.12502
rthumb 16.0491 -56.9862
lclavicle -3.8763e-015 -2.38542e-014
lhumerus -44.1527 -13.1148 95.8492
lradius 34.2095
lwrist 53.5759
lhand -28.2017 12.9291
lfingers 7.12502
lthumb -1.58073 42.9029
rfemur -26.1004 18.1812 22.0143
rtibia 26.3577
rfoot -13.8782 -12.8948
rtoes 6.69252
lfemur 0 0 0
ltibia 0
lfoot 0 0
ltoes 0
143
root 2.82023 15.7266 31.8311 181.483 -86.7088 -164.686
lowerback -23.6371 -2.51283 -2.43033
upperback -7.15875 -3.60958 4.0519
thorax 5.67302 -2.01107 4.7688
lowerneck -14.8125 -7.75125 -3.15501
upperneck 21.5168 -13.0371 9.50392
head 10.1798 -5.47111 2.03185
rclavicle 9.54166e-015 -3.81667e-014
rhumerus -37.7342 -5.39199 -74.6865
rradius 26.9574
rwrist -23.3575
rhand -9.23314 -26.8118
rfingers 7.12502
rthumb 16.722 -56.1116
lclavicle 9.54166e-015 -3.81667e-014
lhumerus -44.4655 -14.41 96.7363
lradius 34.3113
lwrist 52.5662
lhand -28.3038 12.6133
lfingers 7.12502
lthumb -1.67931 42.5864
rfemur -26.1004 18.138 22.0274
rtibia 26.3528
rfoot -13.8862 -12.9031
rtoes 6.74516
lfemur 0 0 0
ltibia 0
lfoot 0 0
ltoes 0
144
root 2.82235 15.7265 31.8313 181.205 -86.7634 -164.406
lowerback -23.6164 -2.51521 -2.48454
upperback -7.14359 -3.59867 4.05576
thorax 5.68101 -2.00526 4.80793
lowerneck -15.0041 -7.58178 -2.95379
upperneck 21.6369 -12.8205 9.37266
head 10.2199 -5.35639 1.97963
rclavicle 3.29983e-014 3.97569e-015
rhumerus -37.7727 -4.57919 -75.0535
rradius 27.0942
rwrist -21.8245
rhand -8.75133 -26.0228
rfingers 7.12502
rthumb 17.1858 -55.2828
lclavicle 3.29983e-014 3.97569e-015
lhumerus -44.7964 -15.692 97.6188
lradius 34.4006
lwrist 51.5119
lhand -28.3581 12.3054
lfingers 7.12502
lthumb -1.73181 42.2781
rfemur -26.102 18.0945 22.0381
rtibia 26.3492
rfoot -13.8932 -12.9122
rtoes 6.77694
lfemur 0 0 0
ltibia 0
lfoot 0 0
ltoes 0
145
root 2.8244 15.7264 31.8315 180.911 -86.8153 -164.107
lowerback -23.6007 -2.52076 -2.53654
upperback -7.12927 -3.59236 4.05775
thorax 5.69089 -2.00178 4.84227
lowerneck -15.2015 -7.39997 -2.73327
upperneck 21.7672 -12.5909 9.23094
head 10.2627 -5.23487 1.92245
rclavicle -3.54831e-014 6.36111e-015
rhumerus -37.8085 -3.70317 -75.4691
rradius 27.2022
rwrist -20.2304
rhand -8.55115 -25.281
rfingers 7.12502
rthumb 17.3785 -54.5241
lclavicle -3.54831e-014 6.36111e-015
lhumerus -45.1421 -16.9519 98.4937
lradius 34.4749
lwrist 50.4228
lhand -28.3515 12.0011
lfingers 7.12502
lthumb -1.72535 41.9739
rfemur -26.1042 18.0512 22.0499
rtibia 26.3444
rfoot -13.8979 -12.9224
rtoes 6.78158
lfemur 0 0 0
ltibia 0
lfoot 0 0
ltoes 0
146
root 2.82638 15.7264 31.8318 180.565 -86.8643 -163.756
lowerback -23.5893 -2.53138 -2.58531
upperback -7.11706 -3.59373 4.06102
thorax 5.70133 -2.00216 4.87383
lowerneck -15.4056 -7.20374 -2.49893
upperneck 21.9088 -12.3443 9.07995
head 10.3092 -5.10501 1.86211
rclavicle -2.59414e-014 3.49861e-014
rhumerus -37.8399 -2.76546 -75.9298
rradius 27.2813
rwrist -18.6834
rhand -8.67197 -24.5928
rfingers 7.12502
rthumb 17.2622 -53.8462
lclavicle -2.59414e-014 3.49861e-014
lhumerus -45.4956 -18.1661 99.3501
lradius 34.5302
lwrist 49.3153
lhand -28.2502 11.6952
lfingers 7.12502
lthumb -1.62756 41.6687
rfemur -26.1072 18.0129 22.063
rtibia 26.3358
rfoot -13.899 -12.935
rtoes 6.77579
lfemur 0 0 0
ltibia 0
lfoot 0 0
ltoes 0
147
root 2.82826 15.7264 31.832 180.178 -86.9084 -163.36
lowerback -23.5841 -2.5345 -2.62735
upperback -7.10347 -3.58637 4.05838
thorax 5.71473 -1.99831 4.89736
lowerneck -15.6126 -7.0071 -2.27453
upperneck 22.0506 -12.0987 8.94041
head 10.3591 -4.9751 1.8071
rclavicle 1.47101e-014 -2.70347e-014
rhumerus -37.8716 -1.79672 -76.4254
rradius 27.3369
rwrist -17.2657
rhand -9.09992 -23.9982
rfingers 7.12502
rthumb 16.8503 -53.2871
lclavicle 1.47101e-014 -2.70347e-014
lhumerus -45.8476 -19.3573 100.192
lradius 34.5634
lwrist 48.2137
lhand -28.0429 11.3737
lfingers 7.12502
lthumb -1.42731 41.3487
rfemur -26.1098 17.9837 22.0774
rtibia 26.3216
rfoot -13.8944 -12.952
rtoes 6.76105
lfemur 0 0 0
ltibia 0
lfoot 0 0
ltoes 0
148
root 2.83007 15.7265 31.8323 179.716 -86.9479 -162.888
lowerback -23.5834 -2.53185 -2.66004
upperback -7.08936 -3.57343 4.05255
thorax 5.7297 -1.99177 4.91345
lowerneck -15.8249 -6.80684 -2.05872
upperneck 22.2003 -11.8482 8.80321
head 10.4144 -4.84301 1.75487
rclavicle -2.18663e-014 -2.38542e-015
rhumerus -37.9019 -0.80893 -76.9485
rradius 27.3671
rwrist -16.0092
rhand -9.85109 -23.5178
rfingers 7.12502
rthumb 16.127 -52.8668
lclavicle -2.18663e-014 -2.38542e-015
lhumerus -46.1956 -20.5127 101.015
lradius 34.575
lwrist 47.1335
lhand -27.7188 11.033
lfingers 7.12502
lthumb -1.11431 41.0098
rfemur -26.1118 17.9605 22.0945
rtibia 26.301
rfoot -13.8866 -12.9691
rtoes 6.75848
lfemur 0 0 0
ltibia 0
lfoot 0 0
ltoes 0
